<svg width="226" height="91" viewBox="0 0 226 91" fill="none" xmlns="http://www.w3.org/2000/svg">
<path d="M56.2 65.928V81H3.88V69.096L29.032 45.576C31.464 43.272 33.096 41.32 33.928 39.72C34.76 38.056 35.176 36.392 35.176 34.728C35.176 32.552 34.44 30.856 32.968 29.64C31.496 28.424 29.352 27.816 26.536 27.816C24.04 27.816 21.736 28.392 19.624 29.544C17.576 30.632 15.88 32.232 14.536 34.344L0.424 26.472C3.048 22.12 6.728 18.696 11.464 16.2C16.2 13.704 21.8 12.456 28.264 12.456C33.384 12.456 37.896 13.288 41.8 14.952C45.768 16.616 48.84 19.016 51.016 22.152C53.256 25.224 54.376 28.808 54.376 32.904C54.376 36.552 53.576 40.008 51.976 43.272C50.44 46.472 47.432 50.12 42.952 54.216L30.28 65.928H56.2ZM124.624 68.136H114.64V81H96.112V68.136H60.592V55.752L90.736 13.8H110.416L83.056 53.064H96.688V41.64H114.64V53.064H124.624V68.136ZM155.503 0.167994H171.727L140.047 90.6H123.823L155.503 0.167994ZM225.388 13.8V25.704L201.676 81H180.94L203.596 28.872H185.932V39.24H169.708V13.8H225.388Z" fill="#616DA1" fill-opacity="0.1"/>
</svg>
