<svg width="109" height="109" viewBox="0 0 109 109" fill="none" xmlns="http://www.w3.org/2000/svg">
<path d="M90.7952 12.353C90.781 12.29 90.7429 12.2403 90.7242 12.1809C90.6932 12.0789 90.6524 11.9804 90.6027 11.8864C90.5459 11.7782 90.4776 11.6771 90.3996 11.583C90.3366 11.505 90.2674 11.4322 90.192 11.3648C90.1006 11.2876 90.0004 11.2211 89.894 11.1652C89.8044 11.1111 89.7094 11.065 89.611 11.0268C89.493 10.9896 89.3706 10.9648 89.2473 10.9523C89.1719 10.9302 89.0947 10.9124 89.0167 10.9H79.857C79.3887 4.57626 76.4543 0 72.6667 0C68.879 0 65.9446 4.57626 65.4763 10.9H61.6904C61.222 4.57626 58.2877 0 54.5 0C50.7123 0 47.778 4.57626 47.3096 10.9H43.5237C43.0554 4.57626 40.121 0 36.3333 0C32.5457 0 29.6113 4.57626 29.143 10.9H25.357C24.8887 4.57626 21.9543 0 18.1667 0C14.379 0 11.4446 4.57626 10.9763 10.9H1.81667C0.81342 10.9 0 11.7134 0 12.7167V107.183C0 108.187 0.81342 109 1.81667 109H89.0167C90.0199 109 90.8333 108.187 90.8333 107.183V101.733H107.183C107.729 101.733 108.245 101.488 108.589 101.065C108.934 100.642 109.071 100.088 108.962 99.553L90.7952 12.353ZM72.6667 3.63333C73.9786 3.63333 75.8095 6.41688 76.2131 10.9H69.1274C69.5239 6.41688 71.3547 3.63333 72.6667 3.63333ZM54.5 3.63333C55.8119 3.63333 57.6428 6.41688 58.0464 10.9H50.9607C51.3572 6.41688 53.1881 3.63333 54.5 3.63333ZM36.3333 3.63333C37.6453 3.63333 39.4761 6.41688 39.8797 10.9H32.794C33.1905 6.41688 35.0214 3.63333 36.3333 3.63333ZM18.1667 3.63333C19.4786 3.63333 21.3095 6.41688 21.7131 10.9H14.6274C15.0239 6.41688 16.8547 3.63333 18.1667 3.63333ZM3.63333 14.5333H10.9763C11.4446 20.8571 14.379 25.4333 18.1667 25.4333C19.1699 25.4333 19.9833 24.6199 19.9833 23.6167C19.9833 22.6134 19.1699 21.8 18.1667 21.8C16.8547 21.8 15.0239 19.0165 14.6203 14.5333H29.143C29.6175 20.8571 32.5457 25.4333 36.3333 25.4333C37.3366 25.4333 38.15 24.6199 38.15 23.6167C38.15 22.6134 37.3366 21.8 36.3333 21.8C35.0214 21.8 33.1905 19.0165 32.7869 14.5333H47.3096C47.7842 20.8571 50.7123 25.4333 54.5 25.4333C55.5033 25.4333 56.3167 24.6199 56.3167 23.6167C56.3167 22.6134 55.5033 21.8 54.5 21.8C53.1881 21.8 51.3572 19.0165 50.9536 14.5333H65.4763C65.9509 20.8571 68.879 25.4333 72.6667 25.4333C73.6699 25.4333 74.4833 24.6199 74.4833 23.6167C74.4833 22.6134 73.6699 21.8 72.6667 21.8C71.3547 21.8 69.5239 19.0165 69.1203 14.5333H87.2V32.7H3.63333V14.5333ZM87.2 105.367H3.63333V36.3333H87.2V105.367ZM90.8333 98.1V30.3387L104.951 98.1H90.8333Z" fill="#616DA1"/>
<path d="M39.9667 65.4H32.7C31.6968 65.4 30.8833 66.2134 30.8833 67.2167V74.4834C30.8833 75.4866 31.6968 76.3 32.7 76.3H39.9667C40.9699 76.3 41.7833 75.4866 41.7833 74.4834V67.2167C41.7833 66.2134 40.9699 65.4 39.9667 65.4ZM38.15 72.6667H34.5167V69.0334H38.15V72.6667Z" fill="#616DA1"/>
<path d="M58.1333 65.4H50.8667C49.8634 65.4 49.05 66.2134 49.05 67.2167V74.4834C49.05 75.4866 49.8634 76.3 50.8667 76.3H58.1333C59.1366 76.3 59.95 75.4866 59.95 74.4834V67.2167C59.95 66.2134 59.1366 65.4 58.1333 65.4ZM56.3167 72.6667H52.6833V69.0334H56.3167V72.6667Z" fill="#616DA1"/>
<path d="M21.8 65.4H14.5333C13.5301 65.4 12.7167 66.2134 12.7167 67.2167V74.4834C12.7167 75.4866 13.5301 76.3 14.5333 76.3H21.8C22.8033 76.3 23.6167 75.4866 23.6167 74.4834V67.2167C23.6167 66.2134 22.8033 65.4 21.8 65.4ZM19.9833 72.6667H16.35V69.0334H19.9833V72.6667Z" fill="#616DA1"/>
<path d="M39.9667 83.5667H32.7C31.6968 83.5667 30.8833 84.3801 30.8833 85.3833V92.65C30.8833 93.6532 31.6968 94.4667 32.7 94.4667H39.9667C40.9699 94.4667 41.7833 93.6532 41.7833 92.65V85.3833C41.7833 84.3801 40.9699 83.5667 39.9667 83.5667ZM38.15 90.8333H34.5167V87.2H38.15V90.8333Z" fill="#616DA1"/>
<path d="M58.1333 83.5667H50.8667C49.8634 83.5667 49.05 84.3801 49.05 85.3833V92.65C49.05 93.6532 49.8634 94.4667 50.8667 94.4667H58.1333C59.1366 94.4667 59.95 93.6532 59.95 92.65V85.3833C59.95 84.3801 59.1366 83.5667 58.1333 83.5667ZM56.3167 90.8333H52.6833V87.2H56.3167V90.8333Z" fill="#616DA1"/>
<path d="M21.8 83.5667H14.5333C13.5301 83.5667 12.7167 84.3801 12.7167 85.3833V92.65C12.7167 93.6532 13.5301 94.4667 14.5333 94.4667H21.8C22.8033 94.4667 23.6167 93.6532 23.6167 92.65V85.3833C23.6167 84.3801 22.8033 83.5667 21.8 83.5667ZM19.9833 90.8333H16.35V87.2H19.9833V90.8333Z" fill="#616DA1"/>
<path d="M39.9667 47.2333H32.7C31.6968 47.2333 30.8833 48.0468 30.8833 49.05V56.3167C30.8833 57.3199 31.6968 58.1333 32.7 58.1333H39.9667C40.9699 58.1333 41.7833 57.3199 41.7833 56.3167V49.05C41.7833 48.0468 40.9699 47.2333 39.9667 47.2333ZM38.15 54.5H34.5167V50.8667H38.15V54.5Z" fill="#616DA1"/>
<path d="M58.1333 47.2333H50.8667C49.8634 47.2333 49.05 48.0468 49.05 49.05V56.3167C49.05 57.3199 49.8634 58.1333 50.8667 58.1333H58.1333C59.1366 58.1333 59.95 57.3199 59.95 56.3167V49.05C59.95 48.0468 59.1366 47.2333 58.1333 47.2333ZM56.3167 54.5H52.6833V50.8667H56.3167V54.5Z" fill="#616DA1"/>
<path d="M76.3 65.4H69.0333C68.0301 65.4 67.2167 66.2134 67.2167 67.2167V74.4834C67.2167 75.4866 68.0301 76.3 69.0333 76.3H76.3C77.3033 76.3 78.1167 75.4866 78.1167 74.4834V67.2167C78.1167 66.2134 77.3033 65.4 76.3 65.4ZM74.4833 72.6667H70.85V69.0334H74.4833V72.6667Z" fill="#616DA1"/>
<path d="M76.3 83.5667H69.0333C68.0301 83.5667 67.2167 84.3801 67.2167 85.3833V92.65C67.2167 93.6532 68.0301 94.4667 69.0333 94.4667H76.3C77.3033 94.4667 78.1167 93.6532 78.1167 92.65V85.3833C78.1167 84.3801 77.3033 83.5667 76.3 83.5667ZM74.4833 90.8333H70.85V87.2H74.4833V90.8333Z" fill="#616DA1"/>
<path d="M76.3 47.2333H69.0333C68.0301 47.2333 67.2167 48.0468 67.2167 49.05V56.3167C67.2167 57.3199 68.0301 58.1333 69.0333 58.1333H76.3C77.3033 58.1333 78.1167 57.3199 78.1167 56.3167V49.05C78.1167 48.0468 77.3033 47.2333 76.3 47.2333ZM74.4833 54.5H70.85V50.8667H74.4833V54.5Z" fill="#616DA1"/>
<path d="M21.8 47.2333H14.5333C13.5301 47.2333 12.7167 48.0468 12.7167 49.05V56.3167C12.7167 57.3199 13.5301 58.1333 14.5333 58.1333H21.8C22.8033 58.1333 23.6167 57.3199 23.6167 56.3167V49.05C23.6167 48.0468 22.8033 47.2333 21.8 47.2333ZM19.9833 54.5H16.35V50.8667H19.9833V54.5Z" fill="#616DA1"/>
</svg>
