<svg width="109" height="109" viewBox="0 0 109 109" fill="none" xmlns="http://www.w3.org/2000/svg">
<path d="M86.82 0H22.18C17.6284 0 13.2948 1.42786 9.64714 4.1288C8.93587 4.65549 8.78621 5.65906 9.3129 6.37033C9.83959 7.08159 10.8432 7.23083 11.5544 6.70456C14.646 4.41514 18.3203 3.20486 22.18 3.20486H86.8198C96.6758 3.20486 104.694 11.2234 104.694 21.0792V63.475C104.694 73.331 96.6756 81.3493 86.8198 81.3493H59.4987C58.8385 81.3493 58.2007 81.6252 57.7494 82.1057L35.8071 105.436C35.3335 105.94 34.7842 105.797 34.5702 105.712C34.3561 105.628 33.8581 105.356 33.8581 104.664V83.7512C33.8581 82.427 32.7809 81.3498 31.4567 81.3498H22.18C12.324 81.3498 4.3055 73.3312 4.3055 63.4755V21.0792C4.3055 17.4532 5.38465 13.9624 7.42648 10.9845C7.92677 10.2545 7.74092 9.25734 7.01113 8.75683C6.28155 8.25632 5.28374 8.4426 4.78344 9.17218C2.37437 12.6862 1.10086 16.8035 1.10086 21.0792V63.475C1.10086 75.098 10.557 84.5542 22.1802 84.5542H30.6535V104.664C30.6535 106.452 31.7273 108.033 33.3893 108.692C33.9133 108.899 34.4574 109 34.9952 109C36.1637 109 37.3029 108.524 38.1417 107.632L59.8459 84.5544H86.82C98.443 84.5544 107.899 75.0982 107.899 63.4753V21.0792C107.899 9.45618 98.4432 0 86.82 0Z" fill="#616DA1"/>
<path d="M77.5175 25.7459C71.956 20.1842 62.9058 20.1846 57.3438 25.7459L54.5509 28.5391C54.5434 28.5465 54.5204 28.5695 54.4777 28.5695C54.4351 28.5695 54.4123 28.5469 54.4048 28.5391L51.6562 25.7906C46.0944 20.2289 37.0445 20.2291 31.4827 25.7906C25.9209 31.3524 25.9209 40.4026 31.4827 45.9644L52.1405 66.6222C52.7654 67.247 53.5961 67.5911 54.4796 67.5911C55.3631 67.5911 56.194 67.2468 56.8186 66.622L68.171 55.2677C68.7969 54.6418 68.7969 53.6272 68.1708 53.0017C67.5449 52.376 66.53 52.3758 65.9048 53.0019L54.5524 64.3562C54.5449 64.3637 54.5219 64.3862 54.4796 64.3862C54.4368 64.3862 54.414 64.3637 54.4066 64.3558L33.7487 43.6979C29.4364 39.3854 29.4364 32.369 33.7487 28.0564C38.061 23.7439 45.0777 23.7443 49.39 28.0564L52.1384 30.8049C52.7632 31.4297 53.5939 31.7739 54.4774 31.7739C55.3612 31.7739 56.1916 31.4299 56.8167 30.8051L59.6098 28.0119C63.923 23.6998 70.939 23.6998 75.2513 28.0119C79.5636 32.3243 79.5636 39.3407 75.2513 43.6534L70.4672 48.4386C69.8413 49.0645 69.8413 50.0791 70.4674 50.7046C71.0933 51.3303 72.108 51.3305 72.7335 50.7044L77.5177 45.9195C83.0793 40.3577 83.0793 31.3077 77.5175 25.7459Z" fill="#616DA1"/>
</svg>

