<svg width="109" height="103" viewBox="0 0 109 103" fill="none" xmlns="http://www.w3.org/2000/svg">
<path d="M91.0322 50.4763C89.2618 50.4763 87.8908 51.8411 87.8908 53.62V96.562H65.6142V79.0271C65.6142 77.3821 64.2434 75.944 62.5861 75.944H46.4791C44.7073 75.944 43.2803 77.3819 43.2803 79.0271V96.562H21.0599V55.0457C21.0599 53.3883 19.6903 52.0115 17.9185 52.0115C16.2625 52.0115 14.8916 53.3883 14.8916 55.0457V99.706C14.8916 101.363 16.2625 102.74 17.9185 102.74H46.4791C48.1351 102.74 49.506 101.363 49.506 99.706V82.1708H59.4445V99.706C59.4445 101.363 60.8154 102.74 62.5861 102.74H91.0322C92.6884 102.74 94.0591 101.363 94.0591 99.706V53.6202C94.0591 51.8413 92.6884 50.4763 91.0322 50.4763Z" fill="#616DA1"/>
<path d="M108.111 52.9256L83.3211 28.0304V11.0559C83.3211 9.28891 81.8929 7.92427 80.1224 7.92427C78.4651 7.92427 77.0944 9.28909 77.0944 11.0559V21.8037L56.6457 1.23429C56.0192 0.600588 55.2749 0.259338 54.5327 0.259338C53.676 0.259338 52.9328 0.612699 52.3051 1.23429L0.954832 52.5843C-0.277124 53.815 -0.358696 55.7892 0.954832 56.9224C2.09667 58.2385 4.06348 58.1531 5.29544 56.9224L54.5327 7.80227L103.655 57.3855C104.167 57.8974 104.912 58.1898 105.883 58.1898C106.74 58.1898 107.482 57.8974 108.111 57.3855C109.253 56.2401 109.339 54.1686 108.111 52.9256Z" fill="#616DA1"/>
</svg>
