<svg width="106" height="106" viewBox="0 0 106 106" fill="none" xmlns="http://www.w3.org/2000/svg">
<path d="M84.0405 13.888H74.4508V9.59794C74.4508 8.20994 72.9367 7.57909 71.5487 7.57909H64.1041C62.3377 2.53185 57.9213 0.00823104 52.874 0.00823104C47.8824 -0.179428 43.3421 2.88133 41.6439 7.57909H34.3255C32.9375 7.57909 31.5495 8.20994 31.5495 9.59794V13.888H21.9595C16.2766 13.9486 11.6274 18.4317 11.3603 24.1086V96.4101C11.3603 101.962 16.4075 106 21.9595 106H84.0405C89.5925 106 94.6397 101.962 94.6397 96.4101V24.1088C94.3726 18.4317 89.7234 13.9486 84.0405 13.888ZM36.5965 12.6263H43.5365C44.7479 12.4785 45.721 11.5569 45.934 10.3551C46.6813 7.10089 49.5363 4.76493 52.874 4.67701C56.1809 4.77724 58.9929 7.12045 59.6877 10.3551C59.914 11.5984 60.9514 12.5319 62.2114 12.6263H69.4038V22.7208H36.5965V12.6263ZM89.5925 96.4103C89.5925 99.1863 86.8165 100.953 84.0405 100.953H21.9595C19.1835 100.953 16.4075 99.1863 16.4075 96.4103V24.1088C16.665 21.2193 19.0589 18.9884 21.9595 18.9355H31.5492V25.3707C31.6825 26.7846 32.907 27.8422 34.3252 27.7683H71.5484C72.9927 27.8473 74.2556 26.8042 74.4505 25.3707V18.9353H84.0402C86.9406 18.9884 89.3348 21.2191 89.5922 24.1086V96.4103H89.5925Z" fill="#616DA1"/>
<path d="M43.2841 56.4111C42.3376 55.4134 40.7663 55.3571 39.7509 56.285L31.6753 63.9819L28.2684 60.4488C27.3219 59.4511 25.7506 59.395 24.7353 60.3227C23.7578 61.3468 23.7578 62.9579 24.7353 63.9819L29.9086 69.2816C30.3563 69.783 31.0031 70.0602 31.675 70.0387C32.3407 70.0293 32.9756 69.7571 33.4415 69.2816L43.2836 59.9443C44.2593 59.0492 44.3245 57.5325 43.4292 56.557C43.3833 56.506 43.3348 56.4575 43.2841 56.4111Z" fill="#616DA1"/>
<path d="M79.498 61.8368H50.4765C49.0827 61.8368 47.9529 62.9666 47.9529 64.3604C47.9529 65.7542 49.0827 66.8841 50.4765 66.8841H79.498C80.8918 66.8841 82.0216 65.7542 82.0216 64.3604C82.0216 62.9666 80.8918 61.8368 79.498 61.8368Z" fill="#616DA1"/>
<path d="M43.2841 36.2222C42.3376 35.2245 40.7663 35.1682 39.7509 36.0961L31.6753 43.793L28.2684 40.2599C27.3219 39.2622 25.7506 39.2059 24.7353 40.1338C23.7578 41.1578 23.7578 42.769 24.7353 43.793L29.9086 49.0927C30.3563 49.5941 31.0031 49.8713 31.675 49.8498C32.3407 49.8404 32.9756 49.5682 33.4415 49.0927L43.2836 39.7554C44.2593 38.8603 44.3245 37.3436 43.4292 36.3681C43.3833 36.3171 43.3348 36.2686 43.2841 36.2222Z" fill="#616DA1"/>
<path d="M79.498 41.6478H50.4765C49.0827 41.6478 47.9529 42.7776 47.9529 44.1714C47.9529 45.5652 49.0827 46.6951 50.4765 46.6951H79.498C80.8918 46.6951 82.0216 45.5652 82.0216 44.1714C82.0216 42.7776 80.8918 41.6478 79.498 41.6478Z" fill="#616DA1"/>
<path d="M43.2841 76.5998C42.3376 75.6021 40.7663 75.5461 39.7509 76.4738L31.6753 84.1707L28.2684 80.6375C27.3219 79.6398 25.7506 79.5838 24.7353 80.5115C23.7578 81.5355 23.7578 83.1467 24.7353 84.1707L29.9086 89.4703C30.3563 89.9717 31.0031 90.249 31.675 90.2275C32.3407 90.218 32.9756 89.9459 33.4415 89.4703L43.2836 80.133C44.2593 79.2379 44.3245 77.7212 43.4292 76.7457C43.3833 76.695 43.3348 76.6465 43.2841 76.5998Z" fill="#616DA1"/>
<path d="M79.498 82.0258H50.4765C49.0827 82.0258 47.9529 83.1556 47.9529 84.5494C47.9529 85.9432 49.0827 87.073 50.4765 87.073H79.498C80.8918 87.073 82.0216 85.9432 82.0216 84.5494C82.0216 83.1556 80.8918 82.0258 79.498 82.0258Z" fill="#616DA1"/>
</svg>
