<svg width="109" height="109" viewBox="0 0 109 109" fill="none" xmlns="http://www.w3.org/2000/svg">
<path d="M102.405 45.5935H80.8114C79.7158 45.5935 78.8302 46.4791 78.8302 47.5747C78.8302 48.6703 79.7158 49.5559 80.8114 49.5559H98.8443L104.588 103.048H4.49337L11.2354 49.5559H29.3001C30.3957 49.5559 31.2813 48.6703 31.2813 47.5747C31.2813 46.4791 30.3957 45.5935 29.3001 45.5935H7.74057L0 107.011H109L102.405 45.5935Z" fill="#616DA1"/>
<path d="M52.8071 77.2036C52.5158 77.376 52.2048 77.5285 51.9254 77.7088C51.4896 77.9902 51.0636 78.2854 50.6456 78.5905C49.7639 79.2383 49.5737 80.4786 50.2196 81.3602C50.6079 81.8892 51.2102 82.1685 51.8204 82.1685C52.2266 82.1685 52.6367 82.0437 52.9913 81.7862C53.344 81.5266 53.7026 81.277 54.077 81.0353C54.713 80.6232 55.3886 80.2369 56.086 79.8842C57.0132 79.4147 57.3896 78.3171 57.0013 77.3701C57.0171 77.3542 57.0369 77.3423 57.0508 77.3265C60.6348 73.5305 72.7122 59.3054 77.7128 35.6062C78.7272 30.7998 78.955 26.1876 78.3904 21.8983C76.6865 8.87184 68.5933 1.98517 54.9864 1.98517C41.3834 1.98517 33.2902 8.87184 31.5824 21.8983C31.0197 26.1896 31.2476 30.8018 32.262 35.6062C37.213 59.0756 49.1002 73.2452 52.8071 77.2036ZM35.5111 22.4154C36.9634 11.3365 43.3349 5.94956 54.9884 5.94956C66.6438 5.94956 73.0134 11.3365 74.4636 22.4154C74.9688 26.2589 74.7569 30.4254 73.8376 34.792C69.3422 56.0959 58.6239 69.6136 54.9884 73.7147C51.3489 69.6097 40.6326 56.086 36.1392 34.792C35.2179 30.4254 35.0079 26.2609 35.5111 22.4154Z" fill="#616DA1"/>
<path d="M54.9884 39.4756C63.0142 39.4756 69.5423 32.9475 69.5423 24.9216C69.5423 16.8958 63.0142 10.3677 54.9884 10.3677C46.9625 10.3677 40.4344 16.8958 40.4344 24.9216C40.4344 32.9475 46.9625 39.4756 54.9884 39.4756ZM54.9884 14.3321C60.827 14.3321 65.5799 19.083 65.5799 24.9236C65.5799 30.7642 60.829 35.5151 54.9884 35.5151C49.1478 35.5151 44.3968 30.7642 44.3968 24.9236C44.3968 19.083 49.1498 14.3321 54.9884 14.3321Z" fill="#616DA1"/>
<path d="M62.2653 73.6414C61.1955 73.8672 60.514 74.9212 60.7418 75.9931C60.9399 76.9242 61.7621 77.5602 62.6774 77.5602C62.8141 77.5602 62.9548 77.5463 63.0935 77.5166C64.2545 77.271 65.5125 77.0629 66.83 76.8965C67.9157 76.7638 68.6884 75.7732 68.5517 74.6875C68.417 73.5998 67.4363 72.8152 66.3427 72.9658C64.9103 73.1421 63.5373 73.37 62.2653 73.6414Z" fill="#616DA1"/>
<path d="M72.5101 74.4458C72.5537 75.5097 73.4334 76.3418 74.4874 76.3418C74.5171 76.3418 74.5448 76.3418 74.5746 76.3398L78.539 76.1754C79.6306 76.1258 80.4786 75.1986 80.427 74.107C80.3775 73.0114 79.3592 72.1575 78.3587 72.2169L74.4042 72.3814C73.3106 72.4269 72.4626 73.3502 72.5101 74.4458Z" fill="#616DA1"/>
<path d="M44.4444 83.5614C43.4261 84.3301 42.374 85.0691 41.3141 85.7546C40.3968 86.3509 40.1353 87.5773 40.7316 88.4966C41.11 89.081 41.748 89.398 42.3958 89.398C42.7663 89.398 43.1388 89.295 43.4736 89.079C44.6088 88.342 45.7401 87.5495 46.8318 86.7254C47.7035 86.0656 47.8778 84.8234 47.2201 83.9497C46.5603 83.0839 45.3221 82.9016 44.4444 83.5614Z" fill="#616DA1"/>
<path d="M88.5995 70.4973C87.9299 70.9668 87.0601 71.3076 85.9328 71.5394C84.861 71.7593 84.1715 72.8093 84.3934 73.8812C84.5876 74.8183 85.4118 75.4622 86.333 75.4622C86.4658 75.4622 86.6005 75.4483 86.7352 75.4206C88.4034 75.0758 89.7585 74.5251 90.8878 73.7306L91.1533 73.5364C92.025 72.8747 92.1974 71.6325 91.5377 70.7608C90.8759 69.889 89.6357 69.7186 88.762 70.3764L88.5995 70.4973Z" fill="#616DA1"/>
<path d="M17.5535 85.9883C17.8408 84.9323 17.2147 83.8447 16.1587 83.5594C15.1107 83.2642 14.015 83.8942 13.7298 84.9541C13.4801 85.8734 13.3315 86.8125 13.284 87.7377C13.2741 87.9656 13.2681 88.1954 13.2681 88.4371C13.2701 88.8254 13.2879 89.2137 13.3256 89.6001C13.4306 90.6204 14.2904 91.3792 15.2949 91.3792C15.3603 91.3792 15.4276 91.3752 15.499 91.3693C16.5867 91.2564 17.3791 90.2856 17.2702 89.1959C17.2424 88.9364 17.2325 88.6729 17.2305 88.4232C17.2305 88.2588 17.2365 88.0943 17.2444 87.9319C17.2761 87.29 17.3791 86.6342 17.5535 85.9883Z" fill="#616DA1"/>
<path d="M88.556 55.0973C86.9829 54.8873 85.3781 55.0161 83.8288 55.4559C82.7748 55.7511 82.1626 56.8467 82.4618 57.8987C82.7074 58.7725 83.5019 59.343 84.3657 59.343C84.546 59.343 84.7263 59.3193 84.9046 59.2678C85.9348 58.9785 86.9948 58.8874 88.025 59.026C89.1384 59.1647 90.1092 58.4099 90.2538 57.3282C90.4004 56.2405 89.6397 55.2439 88.556 55.0973Z" fill="#616DA1"/>
<path d="M92.4985 64.9122C92.1756 65.9563 92.762 67.0677 93.8061 67.3887C94.0023 67.4501 94.1964 67.4778 94.3906 67.4778C95.2385 67.4778 96.0211 66.933 96.2826 66.0811C96.4788 65.4511 96.5996 64.8111 96.6452 64.1732C96.6551 64.0087 96.661 63.8423 96.661 63.6779C96.661 62.7507 96.4907 61.8215 96.1558 60.9201C95.7754 59.8918 94.6283 59.3727 93.61 59.7511C92.5818 60.1315 92.0607 61.2727 92.4411 62.297C92.6115 62.7566 92.6986 63.2222 92.6986 63.6759L92.6927 63.9077C92.6689 64.2366 92.6055 64.5655 92.4985 64.9122Z" fill="#616DA1"/>
<path d="M34.6335 89.4792C33.4725 90.024 32.2897 90.5292 31.1188 90.9829C30.0985 91.3752 29.5913 92.5223 29.9855 93.5446C30.2887 94.3292 31.0376 94.8126 31.834 94.8126C32.0718 94.8126 32.3135 94.771 32.5472 94.6799C33.8053 94.1945 35.0733 93.6516 36.3175 93.0691C37.3081 92.6055 37.734 91.4247 37.2685 90.4341C36.8068 89.4415 35.63 89.0116 34.6335 89.4792Z" fill="#616DA1"/>
<path d="M20.2103 81.2314C20.5292 81.2314 20.8542 81.1542 21.1573 80.9897C21.7279 80.6787 22.3361 80.4845 22.9622 80.4171C23.2296 80.3854 23.503 80.3854 23.7665 80.4211C24.882 80.5657 25.8468 79.801 25.9895 78.7173C26.1321 77.6316 25.3693 76.637 24.2856 76.4944C23.6952 76.4171 23.0949 76.4131 22.5204 76.4785C21.3831 76.6033 20.2856 76.952 19.2593 77.5107C18.2984 78.0357 17.9438 79.2363 18.4688 80.1972C18.8294 80.8589 19.5089 81.2314 20.2103 81.2314Z" fill="#616DA1"/>
<path d="M19.7982 96.766C20.2261 96.8769 20.662 96.9602 21.0939 97.0117C21.6011 97.0731 22.1083 97.1048 22.6174 97.1048C23.2376 97.1048 23.8597 97.0612 24.4798 96.982C25.5655 96.8453 26.3362 95.8546 26.1975 94.7689C26.0588 93.6832 25.0741 92.9185 23.9845 93.0512C23.1841 93.1543 22.3757 93.178 21.5753 93.081C21.3138 93.0473 21.0523 92.9977 20.7947 92.9324C19.7348 92.6491 18.655 93.291 18.3777 94.3509C18.1062 95.4109 18.7402 96.4926 19.7982 96.766Z" fill="#616DA1"/>
</svg>
