<svg width="80" height="89" viewBox="0 0 80 89" fill="none" xmlns="http://www.w3.org/2000/svg">
<g clip-path="url(#clip0)">
<path d="M49.0544 6.10607C55.1601 11.5271 58.347 26.6583 58.347 26.6583C58.347 26.6583 57.7513 12.3909 49.7394 1.78712C49.7394 1.78712 48.1906 -0.685098 46.493 2.38284C46.493 2.38284 42.8891 8.22086 41.9062 9.32293C41.9062 9.32293 40.1489 8.57829 37.8556 9.41229C37.8556 9.41229 34.0134 3.27641 33.0901 1.66798C33.0901 1.66798 31.1542 -2.05524 28.0864 1.66798C28.0864 1.66798 22.3679 7.62514 20.283 15.9652C20.283 15.9652 0.446778 25.2881 1.74223e-05 49.4146C-0.446744 73.5411 19.7469 89.2383 38.6895 89.0298C57.6322 88.8213 71.2733 76.8176 75.8005 61.4779C75.8005 61.4779 67.7588 86.1107 38.6895 84.264C9.62027 82.4173 5.65899 55.1335 6.49294 49.087C7.3269 43.0405 8.30977 29.2794 24.8995 19.2118C24.8995 19.2118 26.9844 11.4377 30.4096 7.14857C30.4096 7.14857 32.7327 11.2888 33.6858 12.4504C34.6389 13.6121 36.1877 14.8333 38.7193 13.9695C38.7193 13.9695 40.0596 13.1653 41.2212 13.9397C42.3827 14.7142 44.2591 13.7312 44.7059 12.6292C45.1527 11.5271 49.0544 6.10607 49.0544 6.10607Z" fill="#616DA1"/>
<path d="M12.6284 70.2052C13.0752 68.9839 17.1854 66.5713 17.1854 66.5713C17.1854 66.5713 19.3596 65.3799 20.9084 62.3715C22.4572 59.3631 22.6954 57.4568 22.6954 57.4568C23.2911 54.0612 24.9292 53.0485 24.9292 53.0485C25.4058 52.3635 25.7036 51.1124 25.7036 51.1124C22.3082 54.7761 22.6954 50.8444 22.6954 50.8444C23.1124 45.1553 25.376 44.4404 26.5674 42.8618C27.7587 41.2831 34.6984 40.2406 34.9665 40.5981C35.2047 40.9555 36.2174 41.2236 36.6939 41.0151C37.2003 40.8066 37.7066 40.7768 40.8935 38.9598C44.0804 37.1429 43.6336 41.1342 43.6336 41.1342L42.5912 41.164C42.5912 41.164 44.3187 41.9384 44.0506 42.1767C44.0506 42.1767 44.4974 45.1255 43.4251 46.1084C42.3529 47.0914 38.6001 51.3209 35.175 53.5251L38.0342 52.2145C38.0342 52.2145 39.6128 57.5462 38.4512 59.7205C38.4512 59.7205 39.6426 65.1416 38.7193 69.252C38.7193 69.252 41.4892 71.8732 39.4341 78.4856C39.4341 78.4856 38.1534 84.5917 36.0983 87.7192L26.21 84.7406L17.5726 79.6175L10.8712 73.2135L12.6284 70.2052Z" fill="#616DA1"/>
<path d="M67.9673 29.7263H66.6866C65.3761 29.7263 64.3038 30.7985 64.3038 32.1091V52.4826C64.3038 53.7932 65.3761 54.8655 66.6866 54.8655H67.9673C69.2778 54.8655 70.35 53.7932 70.35 52.4826V47.8062C70.2011 47.6275 70.0521 47.3892 69.933 47.0914C69.6947 46.4063 69.7841 45.6617 69.9926 45.3042C69.9926 45.2745 70.0224 45.2447 70.0224 45.2447C70.1117 45.0957 70.2309 44.9766 70.3202 44.917V44.5298C70.0224 44.6192 69.6054 44.4107 69.3373 43.9937C69.0693 43.5469 69.0991 43.0405 69.3969 42.8618C69.665 42.7129 70.0521 42.832 70.3202 43.1299V32.1091C70.35 30.7985 69.2778 29.7263 67.9673 29.7263ZM68.6523 47.0616C68.2651 47.002 67.9673 46.734 67.9971 46.4659C68.0268 46.1978 68.3545 46.0191 68.7417 46.0489C69.1288 46.1085 69.4267 46.3765 69.3969 46.6446C69.3969 46.9425 69.0395 47.1212 68.6523 47.0616ZM69.516 45.3042C69.516 45.3042 69.516 45.334 69.4862 45.3638C69.3075 45.6617 68.8012 45.6915 68.3545 45.4532C68.2949 45.4234 68.2353 45.3638 68.1758 45.334C67.8481 45.0659 67.6992 44.7085 67.8481 44.4404C68.0268 44.1426 68.5332 44.083 68.9799 44.3511C69.4565 44.5596 69.665 45.0064 69.516 45.3042Z" fill="#233446"/>
<path d="M77.6173 39.2875H57.245C55.9345 39.2875 54.8622 40.3598 54.8622 41.6703V42.9511C54.8622 44.2617 55.9345 45.334 57.245 45.334H68.1757C67.8481 45.0659 67.6992 44.7085 67.8481 44.4404C68.0268 44.1426 68.5331 44.083 68.9799 44.3511C69.4267 44.5894 69.6351 45.0361 69.516 45.334H69.9926C69.9926 45.3042 70.0223 45.2744 70.0223 45.2744C70.1117 45.1255 70.2308 45.0064 70.3202 44.9468C70.6478 44.7085 71.035 44.7085 71.5115 44.7979C71.8392 44.8574 72.3157 45.0957 72.6731 45.3638H77.5875C78.898 45.3638 79.9702 44.2915 79.9702 42.9809V41.7001C80 40.3598 78.9278 39.2875 77.6173 39.2875ZM70.4095 44.4702C70.3798 44.4702 70.35 44.5 70.3202 44.5C70.0223 44.5894 69.6054 44.3809 69.3373 43.9639C69.0693 43.5171 69.099 43.0107 69.3969 42.832C69.6649 42.6831 70.0521 42.8022 70.3202 43.1001C70.3798 43.1596 70.4393 43.2192 70.4691 43.3086C70.7669 43.7851 70.7372 44.2915 70.4095 44.4702ZM71.72 44.4404C71.452 44.4404 71.1839 44.1426 71.1244 43.7553C71.0648 43.3681 71.2733 43.0405 71.5413 43.0107C71.8094 42.9809 72.0774 43.3086 72.137 43.6958C72.1966 44.083 71.9881 44.4106 71.72 44.4404Z" fill="#233446"/>
</g>
<defs>
<clipPath id="clip0">
<rect width="80" height="89" fill="white"/>
</clipPath>
</defs>
</svg>
