<svg width="16" height="17" viewBox="0 0 16 17" fill="none" xmlns="http://www.w3.org/2000/svg">
<path d="M14.2081 11.8325C13.1718 10.954 12.1172 10.4202 11.0941 11.2986L10.4817 11.8273C10.0342 12.2134 9.20208 14.0118 5.98597 10.345C2.76986 6.68597 4.68277 6.11586 5.13287 5.73493L5.74783 5.20369C6.76579 4.32521 6.38111 3.21869 5.64578 2.07848L5.20353 1.38918C4.46558 0.254149 3.65959 -0.492169 2.63901 0.383718L2.08686 0.863125C1.63414 1.18705 0.372821 2.24692 0.0666496 4.25784C-0.302326 6.67042 0.862172 9.43542 3.52351 12.4673C6.18223 15.5019 8.78861 17.0256 11.2537 16.9997C13.3027 16.9764 14.5431 15.888 14.9304 15.4915L15.4825 15.0121C16.5031 14.1362 15.8698 13.2422 14.8309 12.3637L14.2081 11.8325Z" fill="#616DA1"/>
</svg>
