<svg width="13" height="23" viewBox="0 0 13 23" fill="none" xmlns="http://www.w3.org/2000/svg">
<path d="M0 2.024V20.056H1.67143V2.024H0ZM0 19.964V21.62C0 22.448 0.557143 23 1.39286 23H11.6071C12.35 23 13 22.448 13 21.62V19.964H0ZM6.5 22.356C5.94286 22.356 5.57143 21.896 5.57143 21.436C5.57143 20.884 6.03571 20.516 6.5 20.516C7.05714 20.516 7.42857 20.976 7.42857 21.436C7.42857 21.896 7.05714 22.356 6.5 22.356ZM11.3286 2.024V20.148H13V2.024H11.3286ZM11.6071 0H1.39286C0.557143 0 0 0.552 0 1.288V2.116H13V1.288C13 0.552 12.4429 0 11.6071 0ZM6.5 0.46C6.59286 0.46 6.68571 0.552 6.68571 0.644C6.68571 0.736 6.59286 0.828 6.5 0.828C6.40714 0.828 6.31429 0.736 6.31429 0.644C6.31429 0.552 6.40714 0.46 6.5 0.46ZM5.2 1.564C5.10714 1.564 5.01429 1.472 5.01429 1.38C5.01429 1.288 5.10714 1.196 5.2 1.196C5.29286 1.196 5.38571 1.288 5.38571 1.38C5.29286 1.472 5.2 1.564 5.2 1.564ZM7.24286 1.564H5.75714C5.66429 1.564 5.57143 1.472 5.57143 1.38C5.57143 1.288 5.66429 1.196 5.75714 1.196H7.15C7.33571 1.196 7.42857 1.288 7.42857 1.38C7.42857 1.472 7.33571 1.564 7.24286 1.564Z" fill="#233446"/>
</svg>
