<svg width="28" height="28" viewBox="0 0 28 28" fill="none" xmlns="http://www.w3.org/2000/svg">
<path d="M27.2306 23.5193L20.807 17.0951C19.8499 18.5837 18.5833 19.8497 17.0947 20.8069L23.5188 27.231C24.5444 28.2563 26.2072 28.2563 27.2306 27.231C28.2562 26.2073 28.2562 24.5445 27.2306 23.5193Z" fill="#616DA1"/>
<path d="M20.9999 10.5C20.9999 4.70152 16.2986 0 10.5 0C4.70152 0 0 4.70152 0 10.5C0 16.2985 4.70152 20.9997 10.5 20.9997C16.2986 20.9997 20.9999 16.2985 20.9999 10.5ZM10.5 18.3747C6.15746 18.3747 2.62507 14.8426 2.62507 10.5C2.62507 6.15751 6.15746 2.62513 10.5 2.62513C14.8424 2.62513 18.3751 6.15751 18.3751 10.5C18.3751 14.8426 14.8424 18.3747 10.5 18.3747Z" fill="#616DA1"/>
<path d="M4.375 10.5H6.12478C6.12478 8.08768 8.08761 6.12503 10.4999 6.12503V4.37508C7.12304 4.37508 4.375 7.12312 4.375 10.5Z" fill="#616DA1"/>
</svg>
