<svg width="109" height="109" viewBox="0 0 109 109" fill="none" xmlns="http://www.w3.org/2000/svg">
<path d="M84.475 56.3167C77.0775 56.3167 70.9663 61.8757 70.067 69.0333H49.9583V57.9062C51.8477 57.4357 53.4809 56.2386 54.5109 54.5036L77.9822 14.8077C79.3556 12.4914 79.3792 9.71008 78.0458 7.37022C76.7124 5.03035 74.3089 3.63333 71.6148 3.63333H67.4874C66.4627 1.4933 64.2937 0 61.7667 0C58.8673 0 51.775 2.22905 51.775 6.35833C51.775 10.4876 58.8673 12.7167 61.7667 12.7167C64.9604 12.7167 67.5873 10.3405 68.0324 7.26667H71.613C72.9846 7.26667 74.209 7.9788 74.8866 9.17053C75.5661 10.3604 75.5534 11.7775 74.8539 12.9583L51.3826 52.6543C50.6977 53.8097 49.486 54.5 48.1417 54.5C46.7973 54.5 45.5856 53.8097 44.888 52.6361L20.7609 12.9565C20.0615 11.7775 20.0487 10.3604 20.7282 9.17053C21.4076 7.9788 22.632 7.26667 24.0018 7.26667H28.2492C28.6961 10.3405 31.323 12.7167 34.5167 12.7167C37.4161 12.7167 44.5083 10.4876 44.5083 6.35833C44.5083 2.22905 37.4161 0 34.5167 0C31.9897 0 29.8206 1.4933 28.796 3.63333H24.0018C21.3077 3.63333 18.9042 5.03217 17.5708 7.37203C16.2374 9.7119 16.261 12.4914 17.6453 14.8258L41.7743 54.5055C42.8025 56.2404 44.4357 57.4357 46.325 57.9062V69.0333H29.975C18.9569 69.0333 9.99167 77.9986 9.99167 89.0167C9.99167 100.035 18.9569 109 29.975 109C40.9931 109 49.9583 100.035 49.9583 89.0167V72.6667H70.067C70.9663 79.8243 77.0775 85.3833 84.475 85.3833C92.4883 85.3833 99.0083 78.8633 99.0083 70.85C99.0083 62.8367 92.4883 56.3167 84.475 56.3167ZM61.7667 9.08333C59.5249 9.08333 55.6663 7.28665 55.412 6.35833C55.6663 5.43002 59.5249 3.63333 61.7667 3.63333C63.2691 3.63333 64.4917 4.85595 64.4917 6.35833C64.4917 7.86072 63.2691 9.08333 61.7667 9.08333ZM34.5167 3.63333C36.7584 3.63333 40.617 5.43002 40.8714 6.35833C40.617 7.28665 36.7584 9.08333 34.5167 9.08333C33.0143 9.08333 31.7917 7.86072 31.7917 6.35833C31.7917 4.85595 33.0143 3.63333 34.5167 3.63333ZM46.325 89.0167C46.325 98.0328 38.9893 105.367 29.975 105.367C20.9607 105.367 13.625 98.0328 13.625 89.0167C13.625 80.0005 20.9607 72.6667 29.975 72.6667H46.325V89.0167ZM84.475 81.75C78.4637 81.75 73.575 76.8614 73.575 70.85C73.575 64.8387 78.4637 59.95 84.475 59.95C90.4864 59.95 95.375 64.8387 95.375 70.85C95.375 76.8614 90.4864 81.75 84.475 81.75Z" fill="#616DA1"/>
<path d="M84.475 63.5833C80.4674 63.5833 77.2083 66.8424 77.2083 70.85C77.2083 74.8576 80.4674 78.1167 84.475 78.1167C88.4826 78.1167 91.7417 74.8576 91.7417 70.85C91.7417 66.8424 88.4826 63.5833 84.475 63.5833ZM84.475 74.4833C82.4712 74.4833 80.8417 72.8538 80.8417 70.85C80.8417 68.8462 82.4712 67.2166 84.475 67.2166C86.4788 67.2166 88.1083 68.8462 88.1083 70.85C88.1083 72.8538 86.4788 74.4833 84.475 74.4833Z" fill="#616DA1"/>
</svg>
