<svg width="99" height="99" viewBox="0 0 99 99" fill="none" xmlns="http://www.w3.org/2000/svg">
<path d="M86.834 0H12.166C5.45764 0 0 5.45764 0 12.1657V86.834C0 93.5424 5.45764 98.9997 12.1657 98.9997C13.2781 98.9997 14.1803 98.0975 14.1803 96.985C14.1803 95.8726 13.2781 94.9704 12.1657 94.9704C7.67944 94.9707 4.02926 91.3206 4.02926 86.834V12.1657C4.02926 7.67944 7.67944 4.02926 12.166 4.02926H86.834C91.3206 4.02926 94.9704 7.67944 94.9704 12.1657V86.834C94.9704 91.3206 91.3206 94.9704 86.834 94.9704H33.7189C32.6065 94.9704 31.7043 95.8726 31.7043 96.985C31.7043 98.0975 32.6065 98.9997 33.7189 98.9997H86.834C93.5424 98.9997 98.9997 93.542 98.9997 86.834V12.1657C99 5.45764 93.5424 0 86.834 0Z" fill="#616DA1"/>
<path d="M49.5002 17.4575C48.3878 17.4575 47.4855 18.3597 47.4855 19.4721V49.5002C47.4855 50.0344 47.6977 50.5468 48.0755 50.9249L81.6527 84.5021C82.0459 84.8952 82.5616 85.092 83.077 85.092C83.5924 85.092 84.1082 84.8952 84.5014 84.5021C85.2884 83.7153 85.2884 82.4397 84.5014 81.653L51.5145 48.6658V19.4721C51.5148 18.3593 50.6126 17.4575 49.5002 17.4575Z" fill="#616DA1"/>
</svg>
