<svg width="108" height="124" viewBox="0 0 108 124" fill="none" xmlns="http://www.w3.org/2000/svg">
<path d="M103.756 21.3565L65.9007 0.857746C62.3097 -1.08739 57.372 0.408867 55.4269 3.99989L33.2822 45.1471H6.34951C2.90811 45.1471 0.214844 47.8403 0.214844 51.2817V62.0548V117.865C0.214844 121.307 2.90811 124 6.34951 124H92.3845C95.8259 124 98.5192 121.307 98.5192 117.865V102.304H101.063C102.409 102.304 103.457 101.257 103.457 99.9102V82.1047C103.457 80.7581 102.409 79.7107 101.063 79.7107H98.5192V62.2044C98.5192 59.3615 96.4244 56.8179 93.7311 56.2194L106.898 31.8303C108.843 28.0897 107.497 23.4513 103.756 21.3565ZM76.8234 12.2293L53.1825 56.0698H46.4493L71.7361 9.53606L76.8234 12.2293ZM59.766 6.24429C60.5142 4.89765 62.3097 4.29915 63.6563 5.04728L67.397 7.14204L41.0628 56.0698H32.8333L59.766 6.24429ZM4.85325 51.1321C4.85325 50.6832 5.45176 49.9351 6.19989 49.9351H30.5889L27.2972 55.9201H6.19989C5.75101 55.9201 5.30213 55.9201 4.85325 56.0698V51.1321ZM93.5815 117.865C93.5815 118.613 92.983 119.212 92.2349 119.212H6.19989C5.45176 119.212 4.85325 118.613 4.85325 117.865V62.2044C4.85325 61.4563 5.45176 60.8578 6.19989 60.8578H28.7934H38.3695H55.8758H89.5416H92.0853C92.8334 60.8578 93.4319 61.4563 93.4319 62.2044V79.7107H84.3047C80.2648 79.7107 77.1227 83.0025 77.1227 86.8927V95.1222C77.1227 99.1621 80.4144 102.304 84.3047 102.304H93.5815V117.865ZM98.3696 84.4987H98.5192V97.5162H98.3696H84.3047C82.9581 97.5162 81.9107 96.4688 81.9107 95.1222V86.8927C81.9107 85.5461 82.9581 84.4987 84.3047 84.4987H98.3696ZM102.559 29.4363L88.195 56.0698H58.569L81.0129 14.6233L101.362 25.6957C102.858 26.2942 103.307 28.0897 102.559 29.4363Z" fill="#616DA1"/>
</svg>


